<svg id="Layer_1" data-name="Layer 1" xmlns="http://www.w3.org/2000/svg" viewBox="0 0 512 512"><defs><style>.cls-1{fill:#e9eef4;}.cls-2{fill:#44bc4f;}.cls-3{opacity:0.14;}.cls-4{fill:#17292d;}.cls-5{fill:#141f38;}</style></defs><title>glass-2-filled</title><path class="cls-1" d="M414,476.28a49.08,49.08,0,0,1-41.78,22.92H139.79A49.07,49.07,0,0,1,98,476.28a51.85,51.85,0,0,1-4.07-49L204.8,235.71V64a25.6,25.6,0,1,1,0-51.2H307.2a25.6,25.6,0,1,1,0,51.2V235.71L418.06,427.32A51.84,51.84,0,0,1,414,476.28Z"/><path class="cls-2" d="M139.79,499.2A49.07,49.07,0,0,1,98,476.28a51.85,51.85,0,0,1-4.07-49L156,320H356l62.09,107.32a51.83,51.83,0,0,1-4.07,49,49.08,49.08,0,0,1-41.78,22.92Z"/><g class="cls-3"><path class="cls-4" d="M407.18,501.14a64,64,0,0,0,15.3-14.84l.61-.85A65.24,65.24,0,0,0,430,473.1c.34-.8.68-1.61,1-2.43.43-1.15.84-2.31,1.21-3.48s.69-2.41,1-3.62.62-2.55.86-3.85c.31-1.68.58-3.38.76-5.09.09-.87.14-1.75.2-2.62q.15-2.44.12-4.9c0-.71,0-1.42,0-2.13a63.79,63.79,0,0,0-.7-6.93c-.09-.56-.22-1.12-.33-1.68q-.53-2.84-1.32-5.68c-.19-.68-.38-1.36-.59-2a66.31,66.31,0,0,0-2.66-7.13h0l-54.74-94.62L320,232.27h0V2.23A38.24,38.24,0,0,0,307.2,0H268.8V257.87Z"/></g><path class="cls-5" d="M429.49,421.52,378.16,332.8h0l-14.81-25.6h0L320,232.27V74.61A38.4,38.4,0,0,0,307.2,0H204.8A38.4,38.4,0,0,0,192,74.61V232.27L148.65,307.2h0l-14.81,25.6h0L82.51,421.52C63.58,463.89,94,512,139.79,512H372.21C418,512,448.42,463.89,429.49,421.52ZM204.8,25.6H307.2a12.8,12.8,0,1,1,0,25.6H204.8a12.8,12.8,0,0,1,0-25.6Zm9.36,219.49,3.44-5.95V179.2h25.6a12.8,12.8,0,1,0,0-25.6H217.6V128h25.6a12.8,12.8,0,1,0,0-25.6H217.6V76.8h76.8V239.14l3.44,5.95,35.93,62.11H178.23ZM403.24,469.32a36.49,36.49,0,0,1-31,17.08H139.79a36.49,36.49,0,0,1-31-17.08A39.08,39.08,0,0,1,105.42,433l58-100.24H348.59l58,100.24A39.08,39.08,0,0,1,403.24,469.32Z"/></svg>